<svg width="38" height="48" viewBox="0 0 38 48" fill="none" xmlns="http://www.w3.org/2000/svg">
<g clip-path="url(#clip0_58_16765)">
<path d="M0.887544 41.135C9.16769 48.8238 27.4108 53.0312 36.8705 37.315C37.6478 36.0213 36.2092 34.5171 34.9345 35.2891C34.5443 35.527 34.1094 35.8749 33.6239 36.3692C30.5263 40.0457 22.1896 42.2181 18.8239 39.8505C18.5975 39.6918 18.7077 39.3257 18.9818 39.3165C20.4501 39.2524 23.9677 38.9809 25.6803 37.852C26.0139 37.6323 26.288 37.3272 26.4488 36.958C26.8002 36.1495 26.4041 35.5515 24.0243 35.5911C16.9326 35.7254 9.87359 27.8993 0.744577 38.0991C-0.0387609 38.9748 0.0208085 40.3356 0.881587 41.135H0.887544Z" fill="#0C1F3D"/>
<path d="M36.2034 6.86804C27.9233 -0.820746 9.68011 -5.02822 0.220486 10.688C-0.556895 11.9817 0.881706 13.4859 2.15649 12.714C2.54667 12.476 2.98153 12.1281 3.46702 11.6339C6.56463 7.95729 14.9014 5.7849 18.267 8.15256C18.4934 8.31121 18.3832 8.67735 18.1092 8.6865C16.6408 8.75057 13.1232 9.02212 11.4106 10.151C11.077 10.3707 10.803 10.6758 10.6422 11.045C10.2907 11.8535 10.6868 12.4516 13.0666 12.4119C20.1584 12.2777 27.2174 20.1037 36.3464 9.90389C37.1297 9.02822 37.0701 7.66743 36.2094 6.86804H36.2034Z" fill="#0C1F3D"/>
<path d="M11.1812 19.6003V28.3997C11.1812 28.9397 10.7701 29.3608 10.2578 29.3608C9.74554 29.3608 9.31962 28.9397 9.31962 28.3997V25.0801H2.03427V28.3997C2.03427 28.9397 1.62325 29.3608 1.11095 29.3608C0.598651 29.3608 0.172729 28.9397 0.172729 28.3997V19.6003C0.172729 19.0755 0.598651 18.6392 1.11095 18.6392C1.62325 18.6392 2.03427 19.0755 2.03427 19.6003V23.1731H9.31962V19.6003C9.31962 19.0755 9.74554 18.6392 10.2578 18.6392C10.7701 18.6392 11.1812 19.0755 11.1812 19.6003Z" fill="#0C1F3D"/>
<path d="M24.2417 22.2731C24.2417 23.2494 23.8754 24.1495 23.2022 24.8421C22.544 25.5164 21.6475 25.9069 20.6943 25.9069H15.0948V28.3997C15.0948 28.9397 14.6838 29.3608 14.1715 29.3608C13.6592 29.3608 13.2333 28.9397 13.2333 28.3997V24.9458C13.2333 24.4211 13.6443 23.9847 14.1715 23.9847H20.6943C21.6177 23.9847 22.3802 23.2189 22.3802 22.2731C22.3802 21.3272 21.6177 20.5461 20.6943 20.5461H14.1715C13.6443 20.5461 13.2333 20.1251 13.2333 19.6003C13.2333 19.0755 13.6443 18.6392 14.1715 18.6392H20.6943C21.6475 18.6392 22.541 19.0297 23.2022 19.704C23.8754 20.3936 24.2417 21.2967 24.2417 22.2731Z" fill="#0C1F3D"/>
<path d="M36.8407 28.0092C37.0462 28.4882 36.8407 29.0618 36.373 29.2693C36.2569 29.3303 36.1228 29.3608 35.9918 29.3608C35.6403 29.3608 35.3038 29.1503 35.1429 28.8055L31.8875 21.4615C31.6373 20.9062 31.0803 20.5614 30.4935 20.5614C29.9068 20.5614 29.3498 20.9062 29.0996 21.4615L25.8292 28.8055C25.6237 29.2845 25.0668 29.4951 24.5991 29.2723C24.1315 29.0618 23.926 28.4912 24.1434 28.0122L27.3989 20.6835C27.9559 19.4508 29.1592 18.6423 30.4906 18.6423C31.8219 18.6423 33.0252 19.4539 33.5703 20.6835L36.8407 28.0122V28.0092ZM32.1645 25.907C32.1645 26.8528 31.4169 27.6186 30.4935 27.6186C29.5702 27.6186 28.8226 26.8528 28.8226 25.907C28.8226 24.9611 29.5702 24.1953 30.4935 24.1953C31.4169 24.1953 32.1645 24.9611 32.1645 25.907Z" fill="#0C1F3D"/>
</g>
<defs>
<clipPath id="clip0_58_16765">
<rect width="37.0909" height="48" fill="white"/>
</clipPath>
</defs>
</svg>
