<svg width="38" height="48" viewBox="0 0 38 48" fill="none" xmlns="http://www.w3.org/2000/svg">
<g clip-path="url(#clip0_166_875)">
<path d="M0.887551 41.135C9.1677 48.8238 27.4108 53.0312 36.8705 37.315C37.6478 36.0213 36.2092 34.5171 34.9345 35.2891C34.5443 35.527 34.1094 35.8749 33.6239 36.3692C30.5263 40.0457 22.1896 42.2181 18.8239 39.8505C18.5975 39.6918 18.7077 39.3257 18.9818 39.3165C20.4502 39.2524 23.9677 38.9809 25.6803 37.852C26.0139 37.6323 26.288 37.3272 26.4488 36.958C26.8003 36.1495 26.4041 35.5515 24.0243 35.5911C16.9326 35.7254 9.8736 27.8993 0.744585 38.0991C-0.0387533 38.9748 0.0208161 40.3356 0.881594 41.135H0.887551Z" fill="white"/>
<path d="M36.2034 6.86804C27.9232 -0.820744 9.68007 -5.02822 0.220448 10.688C-0.556933 11.9817 0.881668 13.4859 2.15645 12.714C2.54663 12.476 2.98149 12.1282 3.46698 11.6339C6.56459 7.95729 14.9013 5.7849 18.267 8.15256C18.4934 8.31122 18.3832 8.67735 18.1091 8.6865C16.6408 8.75058 13.1232 9.02212 11.4106 10.151C11.077 10.3707 10.803 10.6758 10.6421 11.045C10.2907 11.8536 10.6868 12.4516 13.0666 12.4119C20.1583 12.2777 27.2173 20.1037 36.3463 9.90389C37.1297 9.02823 37.0701 7.66743 36.2093 6.86804H36.2034Z" fill="white"/>
<path d="M11.1811 19.6003V28.3997C11.1811 28.9397 10.7701 29.3608 10.2578 29.3608C9.74548 29.3608 9.31956 28.9397 9.31956 28.3997V25.0801H2.03422V28.3997C2.03422 28.9397 1.62319 29.3608 1.11089 29.3608C0.598598 29.3608 0.172676 28.9397 0.172676 28.3997V19.6003C0.172676 19.0755 0.598598 18.6392 1.11089 18.6392C1.62319 18.6392 2.03422 19.0755 2.03422 19.6003V23.1731H9.31956V19.6003C9.31956 19.0755 9.74548 18.6392 10.2578 18.6392C10.7701 18.6392 11.1811 19.0755 11.1811 19.6003Z" fill="white"/>
<path d="M24.2416 22.2731C24.2416 23.2494 23.8752 24.1495 23.2021 24.8421C22.5439 25.5164 21.6474 25.9069 20.6942 25.9069H15.0947V28.3997C15.0947 28.9397 14.6837 29.3608 14.1714 29.3608C13.6591 29.3608 13.2332 28.9397 13.2332 28.3997V24.9458C13.2332 24.421 13.6442 23.9847 14.1714 23.9847H20.6942C21.6176 23.9847 22.3801 23.2189 22.3801 22.2731C22.3801 21.3272 21.6176 20.5461 20.6942 20.5461H14.1714C13.6442 20.5461 13.2332 20.1251 13.2332 19.6003C13.2332 19.0755 13.6442 18.6392 14.1714 18.6392H20.6942C21.6474 18.6392 22.5409 19.0297 23.2021 19.704C23.8752 20.3936 24.2416 21.2967 24.2416 22.2731Z" fill="white"/>
<path d="M36.8406 28.0092C37.0462 28.4882 36.8406 29.0618 36.373 29.2693C36.2569 29.3303 36.1228 29.3608 35.9918 29.3608C35.6403 29.3608 35.3037 29.1503 35.1429 28.8055L31.8874 21.4615C31.6372 20.9062 31.0803 20.5614 30.4935 20.5614C29.9068 20.5614 29.3498 20.9062 29.0996 21.4615L25.8292 28.8055C25.6237 29.2845 25.0667 29.4951 24.5991 29.2723C24.1315 29.0618 23.926 28.4912 24.1434 28.0122L27.3989 20.6835C27.9559 19.4508 29.1592 18.6423 30.4905 18.6423C31.8219 18.6423 33.0252 19.4539 33.5703 20.6835L36.8406 28.0122V28.0092ZM32.1644 25.907C32.1644 26.8528 31.4168 27.6186 30.4935 27.6186C29.5702 27.6186 28.8226 26.8528 28.8226 25.907C28.8226 24.9611 29.5702 24.1953 30.4935 24.1953C31.4168 24.1953 32.1644 24.9611 32.1644 25.907Z" fill="white"/>
</g>
<defs>
<clipPath id="clip0_166_875">
<rect width="37.0909" height="48" fill="white"/>
</clipPath>
</defs>
</svg>
